<?xml version="1.0" encoding="UTF-8"?>
<svg id="_레이어_2" data-name="레이어 2" xmlns="http://www.w3.org/2000/svg" viewBox="0 0 6.52 7">
  <defs>
    <style>
      .cls-1 {
        fill: #4d4d4d;
        stroke-width: 0px;
      }
    </style>
  </defs>
  <g id="_레이어_4" data-name="레이어 4">
    <path class="cls-1" d="M3.94.99c-.1.1-.19.19-.28.28-.07.07-.13.13-.2.2-.09.1-.12.21-.07.34.05.13.16.18.3.18.45,0,.89,0,1.34,0,.23,0,.32-.1.33-.33,0-.45,0-.89,0-1.34,0-.14-.06-.24-.18-.29-.13-.05-.24-.02-.34.07-.17.16-.33.33-.5.5-.03.04-.06.04-.11.03-1.02-.3-1.98-.15-2.85.46C.02,2.03-.4,3.88.41,5.32c.87,1.54,2.8,2.13,4.36,1.3,1.12-.6,1.69-1.56,1.75-2.83,0-.06,0-.12-.03-.17-.04-.08-.14-.11-.23-.09-.09.02-.15.1-.16.19-.02.18-.02.35-.05.53-.23,1.3-1.35,2.27-2.67,2.32-.82.03-1.53-.25-2.11-.82-.99-.97-1.13-2.57-.29-3.68.72-.95,1.69-1.3,2.86-1.1.03,0,.06.02.1.03Z"/>
  </g>
</svg>