<?xml version="1.0" encoding="UTF-8"?>
<svg id="_레이어_2" data-name="레이어 2" xmlns="http://www.w3.org/2000/svg" viewBox="0 0 1.41 6.52">
  <defs>
    <style>
      .cls-1 {
        fill: #fff;
        stroke-width: 0px;
      }
    </style>
  </defs>
  <g id="phone1">
    <g>
      <path class="cls-1" d="M1.39,1.02c-.02.35-.04.7-.06,1.05-.02.33-.04.67-.06,1-.02.31-.04.61-.05.92,0,.29-.21.48-.4.53-.33.08-.61-.11-.65-.45-.03-.26-.03-.52-.05-.78-.02-.39-.04-.78-.07-1.16C.05,1.64.02,1.16,0,.68c0-.08.02-.17.05-.25C.2.12.56-.11.96.05c.28.11.47.41.45.71,0,.09,0,.17-.01.26,0,0,0,0,0,0Z"/>
      <path class="cls-1" d="M.7,6.52c-.38,0-.67-.29-.67-.67,0-.37.28-.66.64-.68.41-.01.71.32.71.66,0,.38-.3.68-.68.69Z"/>
    </g>
  </g>
</svg>