<?xml version="1.0" encoding="UTF-8"?>
<svg id="_레이어_2" data-name="레이어 2" xmlns="http://www.w3.org/2000/svg" viewBox="0 0 10.12 8.86">
  <defs>
    <style>
      .cls-1 {
        fill: #4d4d4d;
        stroke-width: 0px;
      }
    </style>
  </defs>
  <g id="phone1">
    <path class="cls-1" d="M0,1.27C0,.57.57,0,1.27,0h7.59c.7,0,1.27.57,1.27,1.27v6.33c0,.7-.57,1.27-1.27,1.27H1.27c-.7,0-1.27-.57-1.27-1.27V1.27ZM6.4,3.37c-.09-.13-.24-.21-.39-.21s-.3.08-.39.21l-1.72,2.52-.52-.65c-.09-.11-.23-.18-.37-.18s-.28.07-.37.18l-1.27,1.58c-.11.14-.14.34-.06.5s.25.27.43.27h6.64c.18,0,.34-.1.42-.25s.07-.34-.03-.49l-2.37-3.48h0ZM2.21,3.16c.52,0,.95-.42.95-.95s-.42-.95-.95-.95-.95.42-.95.95.42.95.95.95Z"/>
  </g>
</svg>