<?xml version="1.0" encoding="UTF-8"?>
<svg id="_레이어_2" data-name="레이어 2" xmlns="http://www.w3.org/2000/svg" viewBox="0 0 10.14 11">
  <defs>
    <style>
      .cls-1 {
        fill: #4d4d4d;
        stroke-width: 0px;
      }
    </style>
  </defs>
  <g id="phone1">
    <g>
      <path class="cls-1" d="M0,1.7v-.85h5.99c.12-.29.3-.52.56-.68.62-.36,1.43-.13,1.75.51.06.13.13.17.27.17.52,0,1.04,0,1.57,0v.84c-.06,0-.11,0-.17,0-.48,0-.96,0-1.45,0-.1,0-.16.03-.2.12-.24.46-.61.72-1.14.72-.52,0-.9-.26-1.13-.73-.06-.12-.14-.1-.23-.1-1.86,0-3.72,0-5.58,0-.07,0-.15,0-.24,0ZM6.77,1.27c0,.23.19.42.41.43.23,0,.43-.19.44-.42,0-.22-.19-.42-.42-.43-.24,0-.43.18-.43.42Z"/>
      <path class="cls-1" d="M0,10.16v-.85h5.99c.16-.37.39-.64.76-.77.61-.22,1.27.04,1.56.62.06.11.11.15.24.15.53,0,1.05,0,1.59,0v.86h-.2c-.47,0-.94,0-1.41,0-.11,0-.16.03-.22.13-.23.45-.6.7-1.11.7-.52,0-.89-.24-1.13-.69-.06-.11-.12-.14-.24-.14-1.85,0-3.71,0-5.56,0H0ZM6.77,9.74c0,.23.19.42.42.42.23,0,.43-.2.43-.43,0-.22-.2-.41-.42-.42-.24,0-.43.19-.43.43Z"/>
      <path class="cls-1" d="M4.16,5.91c-.21.47-.53.77-1.04.84-.53.07-1.04-.19-1.28-.68-.06-.11-.11-.15-.24-.15-.53,0-1.05,0-1.59,0v-.83c.06,0,.13,0,.19,0,.46,0,.93,0,1.39,0,.11,0,.18-.02.23-.13.23-.46.61-.71,1.12-.72.53,0,.91.25,1.14.71.06.12.13.14.25.14,1.85,0,3.7,0,5.55,0,.08,0,.16,0,.26,0v.83h-5.98ZM2.98,5.09c-.25,0-.42.15-.43.39,0,.25.16.44.4.45.24,0,.43-.17.44-.41,0-.23-.16-.41-.4-.42Z"/>
    </g>
  </g>
</svg>