<?xml version="1.0" encoding="UTF-8"?>
<svg id="_레이어_2" data-name="레이어 2" xmlns="http://www.w3.org/2000/svg" viewBox="0 0 7 8">
  <defs>
    <style>
      .cls-1 {
        fill: #fff;
        stroke-width: 0px;
      }
    </style>
  </defs>
  <g id="_레이어_4" data-name="레이어 4">
    <path class="cls-1" d="M2,0c.28,0,.5.22.5.5v.5h2v-.5c0-.28.22-.5.5-.5s.5.22.5.5v.5h.75c.41,0,.75.34.75.75v.75H0v-.75c0-.41.34-.75.75-.75h.75v-.5c0-.28.22-.5.5-.5ZM0,3h7v4.25c0,.41-.34.75-.75.75H.75c-.41,0-.75-.34-.75-.75V3ZM1,4.25v.5c0,.14.11.25.25.25h.5c.14,0,.25-.11.25-.25v-.5c0-.14-.11-.25-.25-.25h-.5c-.14,0-.25.11-.25.25ZM3,4.25v.5c0,.14.11.25.25.25h.5c.14,0,.25-.11.25-.25v-.5c0-.14-.11-.25-.25-.25h-.5c-.14,0-.25.11-.25.25ZM5.25,4c-.14,0-.25.11-.25.25v.5c0,.14.11.25.25.25h.5c.14,0,.25-.11.25-.25v-.5c0-.14-.11-.25-.25-.25h-.5ZM1,6.25v.5c0,.14.11.25.25.25h.5c.14,0,.25-.11.25-.25v-.5c0-.14-.11-.25-.25-.25h-.5c-.14,0-.25.11-.25.25ZM3.25,6c-.14,0-.25.11-.25.25v.5c0,.14.11.25.25.25h.5c.14,0,.25-.11.25-.25v-.5c0-.14-.11-.25-.25-.25h-.5ZM5,6.25v.5c0,.14.11.25.25.25h.5c.14,0,.25-.11.25-.25v-.5c0-.14-.11-.25-.25-.25h-.5c-.14,0-.25.11-.25.25Z"/>
  </g>
</svg>