<?xml version="1.0" encoding="UTF-8"?>
<svg id="_레이어_2" data-name="레이어 2" xmlns="http://www.w3.org/2000/svg" viewBox="0 0 4.89 3.57">
  <defs>
    <style>
      .cls-1 {
        fill: #fff;
        stroke-width: 0px;
      }
    </style>
  </defs>
  <g id="phone1">
    <path class="cls-1" d="M1.64,2.79c.36-.37.69-.7,1.03-1.04.54-.54,1.09-1.09,1.63-1.63.15-.15.31-.16.46-.05.12.09.17.26.1.41-.03.05-.07.1-.11.14-.93.94-1.87,1.87-2.8,2.81-.2.2-.37.2-.57,0-.42-.42-.84-.84-1.26-1.26-.15-.15-.16-.36-.03-.49.14-.14.34-.14.5.02.32.32.64.64.96.96.03.04.06.08.09.14Z"/>
  </g>
</svg>