<?xml version="1.0" encoding="UTF-8"?>
<svg id="_레이어_2" data-name="레이어 2" xmlns="http://www.w3.org/2000/svg" viewBox="0 0 10.63 10.1">
  <defs>
    <style>
      .cls-1 {
        fill: #4d4d4d;
        stroke-width: 0px;
      }
    </style>
  </defs>
  <g id="phone1">
    <g>
      <path class="cls-1" d="M4.37,3.27c0,.7-.01,1.41,0,2.11,0,.17.08.37.2.49.9.93,1.82,1.83,2.74,2.75.33.33.33.48-.09.72-1.72,1-3.46,1.03-5.11-.08C.41,8.13-.28,6.46.11,4.45.48,2.5,1.73,1.28,3.65.76c.08-.02.16-.04.25-.06.34-.06.47.05.47.4,0,.73,0,1.45,0,2.18Z"/>
      <path class="cls-1" d="M5.37,4.7c0-.64,0-1.26,0-1.88,0-.8,0-1.6,0-2.4,0-.32.13-.43.45-.42,2.32.12,4.11,1.91,4.23,4.22.02.37-.08.49-.44.49-1.36,0-2.71,0-4.07,0-.04,0-.08,0-.17-.02Z"/>
      <path class="cls-1" d="M5.7,5.68c.91,0,1.74,0,2.56,0,.64,0,1.28,0,1.92,0,.38,0,.49.12.43.48-.18.99-.61,1.85-1.34,2.55-.16.16-.31.24-.51.04-1-1.01-2-2.01-3.07-3.07Z"/>
    </g>
  </g>
</svg>