<svg width="11" height="11" viewBox="0 0 11 11" fill="none" xmlns="http://www.w3.org/2000/svg">
<path d="M4.36995 3.27003C4.36995 3.97003 4.35995 4.68003 4.36995 5.38003C4.36995 5.55003 4.44995 5.75003 4.56995 5.87003C5.46995 6.80003 6.38995 7.70003 7.30995 8.62003C7.63995 8.95003 7.63995 9.10003 7.21995 9.34003C5.49995 10.34 3.75995 10.37 2.10995 9.26003C0.409947 8.13003 -0.280053 6.46003 0.109947 4.45003C0.479947 2.50003 1.72995 1.28003 3.64995 0.760026C3.72995 0.740026 3.80995 0.720026 3.89995 0.700026C4.23995 0.640026 4.36995 0.750027 4.36995 1.10003C4.36995 1.83003 4.36995 2.55003 4.36995 3.28003V3.27003Z" fill="white"/>
<path d="M5.37 4.70001C5.37 4.06001 5.37 3.44001 5.37 2.82001C5.37 2.02001 5.37 1.22001 5.37 0.420008C5.37 0.100008 5.5 -0.00999171 5.82 8.28604e-06C8.14 0.120008 9.93 1.91001 10.05 4.22001C10.07 4.59001 9.96999 4.71001 9.60999 4.71001C8.24999 4.71001 6.9 4.71001 5.54 4.71001C5.5 4.71001 5.46 4.71001 5.37 4.69001V4.70001Z" fill="white"/>
<path d="M5.69994 5.67999C6.60994 5.67999 7.43994 5.67999 8.25994 5.67999C8.89994 5.67999 9.53994 5.67999 10.1799 5.67999C10.5599 5.67999 10.6699 5.79999 10.6099 6.15999C10.4299 7.14999 9.99994 8.00999 9.26994 8.70999C9.10994 8.86999 8.95994 8.94999 8.75994 8.74999C7.75994 7.73999 6.75994 6.73999 5.68994 5.67999H5.69994Z" fill="white"/>
</svg>
