<?xml version="1.0" encoding="UTF-8"?>
<svg id="_레이어_2" data-name="레이어 2" xmlns="http://www.w3.org/2000/svg" viewBox="0 0 11.03 11">
  <defs>
    <style>
      .cls-1 {
        fill: #4d4d4d;
        stroke-width: 0px;
      }
    </style>
  </defs>
  <g id="phone1">
    <path class="cls-1" d="M8.11,7.11c.91.92,1.78,1.81,2.65,2.7.21.21.35.48.21.75-.1.19-.32.42-.5.44-.22.02-.52-.11-.69-.27-.81-.77-1.59-1.57-2.37-2.38-.21-.22-.35-.23-.6-.06-1.5.95-3.49.88-4.92-.15C.39,7.06-.3,5.23.12,3.44.53,1.7,1.97.31,3.71.06c1.89-.27,3.44.36,4.48,1.96,1.04,1.59,1.01,3.26.03,4.9-.04.07-.08.14-.11.19ZM4.44,7.6c1.77,0,3.16-1.36,3.17-3.11.01-1.73-1.38-3.14-3.1-3.14-1.8,0-3.18,1.36-3.18,3.13,0,1.74,1.38,3.12,3.12,3.13Z"/>
  </g>
</svg>