<?xml version="1.0" encoding="UTF-8"?>
<svg id="_레이어_2" data-name="레이어 2" xmlns="http://www.w3.org/2000/svg" viewBox="0 0 3.71 17.18">
  <defs>
    <style>
      .cls-1 {
        fill: #ffffff;
        stroke-width: 0px;
      }
    </style>
  </defs>
  <g id="wide3">
    <g>
      <path class="cls-1" d="M1.76,13.64c-.93.03-1.68.8-1.68,1.78,0,1,.77,1.77,1.76,1.77.99,0,1.78-.82,1.79-1.81,0-.9-.8-1.78-1.87-1.74Z"/>
      <path class="cls-1" d="M2.52.13C1.48-.28.53.32.14,1.14.05,1.34,0,1.58,0,1.79c.05,1.27.13,2.53.2,3.8.06,1.02.11,2.04.17,3.07.04.68.06,1.37.13,2.05.09.89.84,1.39,1.71,1.18.51-.12,1.03-.62,1.05-1.39.02-.81.08-1.61.12-2.42.05-.88.1-1.76.15-2.63.05-.92.1-1.84.15-2.76,0,0,0,0,0,0,.01-.23.02-.45.03-.68.04-.79-.46-1.58-1.19-1.88Z"/>
    </g>
  </g>
</svg>