<?xml version="1.0" encoding="UTF-8"?>
<svg id="_레이어_2" data-name="레이어 2" xmlns="http://www.w3.org/2000/svg" viewBox="0 0 15.81 27.66">
  <defs>
    <style>
      .cls-1 {
        fill: #fff;
        stroke-width: 0px;
      }
    </style>
  </defs>
  <g id="phone2">
    <path class="cls-1" d="M11.12,13.91c-.31-.33-.49-.54-.69-.74C7.22,9.97,4.01,6.78.8,3.6.27,3.07-.07,2.48.03,1.72.12.97.51.4,1.24.14,2.06-.15,2.81,0,3.43.62c1.19,1.17,2.36,2.36,3.54,3.54,2.69,2.69,5.38,5.37,8.06,8.06,1.02,1.02,1.04,2.17.03,3.18-3.83,3.84-7.67,7.68-11.52,11.51-.93.93-2.16.98-2.99.16-.82-.82-.73-2.04.22-2.99,3.16-3.15,6.32-6.3,9.48-9.44.25-.25.53-.46.86-.75Z"/>
  </g>
</svg>