<?xml version="1.0" encoding="UTF-8"?>
<svg id="_레이어_2" data-name="레이어 2" xmlns="http://www.w3.org/2000/svg" viewBox="0 0 10.83 13.26">
  <defs>
    <style>
      .cls-1 {
        fill: #fff;
        stroke-width: 0px;
      }
    </style>
  </defs>
  <g id="wide3">
    <g>
      <path class="cls-1" d="M2.86,1.06c.85,0,1.7,0,2.55,0s1.71,0,2.57,0c.13,0,.24-.11.24-.24,0-.19,0-.38,0-.57,0-.14-.11-.24-.25-.24C6.27,0,4.56,0,2.85,0c-.18,0-.25.07-.25.24,0,.19,0,.38,0,.57,0,.14.11.25.25.25Z"/>
      <path class="cls-1" d="M7.97,1.28c-.85,0-1.7,0-2.55,0-.86,0-1.71,0-2.57,0-.16,0-.24.07-.24.22,0,.42,0,.85,0,1.27,0,.05.03.13.07.15.05.04.13.06.2.06.76,0,1.51,0,2.27,0,.94,0,1.88,0,2.81,0,.2,0,.27-.07.26-.26,0-.37-.04-.74,0-1.11.02-.24-.04-.33-.25-.33Z"/>
      <path class="cls-1" d="M10.57,6.42c-.75,0-1.49,0-2.23,0h-.11s0-.05,0-.06c0-.96,0-1.91,0-2.87,0-.2-.1-.29-.29-.28-1.68,0-3.37,0-5.05,0-.16,0-.29.13-.29.29v2.93h-.12c-.75,0-1.5,0-2.25,0-.1,0-.17.03-.21.12-.04.08-.02.16.04.23,1,1.23,1.99,2.45,2.98,3.68.73.9,1.45,1.79,2.18,2.69.12.15.26.15.38.02.51-.63,1.02-1.25,1.52-1.88,1.21-1.49,2.42-2.99,3.63-4.48.07-.08.1-.16.05-.27-.05-.1-.13-.12-.23-.12Z"/>
    </g>
  </g>
</svg>