<?xml version="1.0" encoding="UTF-8"?>
<svg id="_레이어_2" data-name="레이어 2" xmlns="http://www.w3.org/2000/svg" viewBox="0 0 11.56 13.15">
  <defs>
    <style>
      .cls-1 {
        fill: #fff;
        stroke-width: 0px;
      }
    </style>
  </defs>
  <g id="phone2">
    <g>
      <path class="cls-1" d="M1.73,4.4c1.12.49,2.31.68,3.53.73.65.03,1.29,0,1.93-.07.83-.1,1.64-.26,2.42-.57.61-.24,1.19-.55,1.61-1.08.24-.3.37-.64.3-1.03-.06-.34-.24-.6-.47-.83-.48-.48-1.09-.77-1.72-.99C8.18.15,6.99.01,5.77,0c-.27.01-.54.02-.81.04-1.05.06-2.07.24-3.04.63-.61.24-1.18.55-1.6,1.07-.41.51-.41,1.17.01,1.68.38.46.87.75,1.41.98Z"/>
      <path class="cls-1" d="M10.21,10.26c-1.01.53-2.1.75-3.21.87-.68.07-1.36.07-2.04.03-.88-.05-1.75-.2-2.59-.47-.69-.22-1.34-.52-1.86-1.03-.24-.23-.42-.51-.5-.85,0,.55,0,1.1,0,1.65,0,.46.18.83.49,1.15.48.48,1.07.76,1.69.98.86.3,1.76.46,2.67.52.85.06,1.7.04,2.54-.07.65-.08,1.29-.22,1.91-.43.64-.23,1.26-.51,1.75-.99.27-.27.48-.58.49-.96.02-.61,0-1.23,0-1.84-.05.24-.17.45-.32.65-.27.35-.63.6-1.02.81Z"/>
      <path class="cls-1" d="M1.74,9.74c1.16.49,2.38.68,3.62.73,1.06.04,2.1-.05,3.13-.3.82-.2,1.62-.47,2.3-1,.33-.25.6-.55.71-.96.02-.07.04-.14.04-.21,0-.62,0-1.23,0-1.89-.09.4-.29.68-.55.93-.45.43-1,.69-1.58.9-.93.34-1.91.5-2.9.55-.91.05-1.81.01-2.71-.13-.97-.16-1.92-.42-2.77-.95-.48-.3-.89-.68-1.03-1.26,0,.55,0,1.09,0,1.64-.01.48.19.85.52,1.18.35.35.77.59,1.22.78Z"/>
      <path class="cls-1" d="M11.55,3.48c-.05.13-.09.25-.14.36-.21.41-.55.69-.93.93-.58.36-1.21.59-1.86.75-1.2.3-2.41.38-3.64.31-.83-.05-1.64-.18-2.43-.41-.66-.2-1.28-.46-1.82-.89C.39,4.25.12,3.93,0,3.49c0,.56,0,1.13,0,1.69,0,.34.11.63.32.89.28.36.65.62,1.06.83,1.04.54,2.16.76,3.31.86.79.07,1.59.06,2.38-.02.81-.08,1.6-.23,2.36-.51.6-.22,1.17-.49,1.63-.95.32-.32.51-.69.5-1.16-.01-.5,0-.99,0-1.49v-.15Z"/>
    </g>
  </g>
</svg>